<mxfile host="app.diagrams.net" modified="2023-05-24T09:08:13.065Z" agent="Mozilla/5.0 (Windows NT 10.0; Win64; x64) AppleWebKit/537.36 (KHTML, like Gecko) Chrome/113.0.0.0 Safari/537.36" etag="6beeQHu6Q1lYSREq6boY" version="21.3.3" type="device">
  <diagram name="Page-1" id="13e1069c-82ec-6db2-03f1-153e76fe0fe0">
    <mxGraphModel dx="1341" dy="624" grid="0" gridSize="10" guides="1" tooltips="1" connect="1" arrows="1" fold="1" page="0" pageScale="1" pageWidth="1100" pageHeight="850" background="none" math="0" shadow="0">
      <root>
        <mxCell id="0" />
        <mxCell id="1" parent="0" />
        <mxCell id="6ZZBdrLPSCEVKC6F-uRo-5" style="edgeStyle=orthogonalEdgeStyle;rounded=0;orthogonalLoop=1;jettySize=auto;html=1;endArrow=none;endFill=0;dashed=1;fontSize=20;" edge="1" parent="1" source="6ZZBdrLPSCEVKC6F-uRo-4">
          <mxGeometry relative="1" as="geometry">
            <mxPoint x="981" y="797" as="targetPoint" />
          </mxGeometry>
        </mxCell>
        <mxCell id="6ZZBdrLPSCEVKC6F-uRo-3" value="&lt;font style=&quot;font-size: 20px;&quot; face=&quot;Times New Roman&quot;&gt;&amp;nbsp;GUI&lt;/font&gt;" style="shape=umlLifeline;perimeter=lifelinePerimeter;whiteSpace=wrap;html=1;container=1;dropTarget=0;collapsible=0;recursiveResize=0;outlineConnect=0;portConstraint=eastwest;newEdgeStyle={&quot;edgeStyle&quot;:&quot;elbowEdgeStyle&quot;,&quot;elbow&quot;:&quot;vertical&quot;,&quot;curved&quot;:0,&quot;rounded&quot;:0};participant=umlBoundary;align=center;fontSize=20;" vertex="1" parent="1">
          <mxGeometry x="388.5" y="78" width="50" height="725" as="geometry" />
        </mxCell>
        <mxCell id="6ZZBdrLPSCEVKC6F-uRo-2" value="" style="shape=umlLifeline;perimeter=lifelinePerimeter;whiteSpace=wrap;html=1;container=1;dropTarget=0;collapsible=0;recursiveResize=0;outlineConnect=0;portConstraint=eastwest;newEdgeStyle={&quot;edgeStyle&quot;:&quot;elbowEdgeStyle&quot;,&quot;elbow&quot;:&quot;vertical&quot;,&quot;curved&quot;:0,&quot;rounded&quot;:0};participant=umlActor;fontSize=20;" vertex="1" parent="1">
          <mxGeometry x="111.5" y="78" width="20" height="725" as="geometry" />
        </mxCell>
        <mxCell id="N8wbkYivmO6qTOgfnad1-10" style="edgeStyle=orthogonalEdgeStyle;rounded=0;orthogonalLoop=1;jettySize=auto;html=1;fontFamily=Times New Roman;fontSize=20;" parent="1" source="N8wbkYivmO6qTOgfnad1-3" edge="1">
          <mxGeometry relative="1" as="geometry">
            <Array as="points">
              <mxPoint x="272" y="152" />
              <mxPoint x="272" y="152" />
            </Array>
            <mxPoint x="413" y="152" as="targetPoint" />
          </mxGeometry>
        </mxCell>
        <mxCell id="N8wbkYivmO6qTOgfnad1-35" style="edgeStyle=orthogonalEdgeStyle;rounded=0;orthogonalLoop=1;jettySize=auto;html=1;fontFamily=Times New Roman;fontSize=20;" parent="1" edge="1">
          <mxGeometry relative="1" as="geometry">
            <Array as="points">
              <mxPoint x="231" y="603" />
              <mxPoint x="231" y="603" />
            </Array>
            <mxPoint x="126.5" y="603" as="sourcePoint" />
            <mxPoint x="408.5" y="603" as="targetPoint" />
          </mxGeometry>
        </mxCell>
        <mxCell id="N8wbkYivmO6qTOgfnad1-3" value="" style="html=1;points=[];perimeter=orthogonalPerimeter;rounded=0;shadow=0;comic=0;labelBackgroundColor=none;strokeWidth=1;fontFamily=Times New Roman;fontSize=20;align=center;" parent="1" vertex="1">
          <mxGeometry x="116.5" y="138" width="10" height="644" as="geometry" />
        </mxCell>
        <mxCell id="N8wbkYivmO6qTOgfnad1-13" style="edgeStyle=orthogonalEdgeStyle;rounded=0;orthogonalLoop=1;jettySize=auto;html=1;dashed=1;fontFamily=Times New Roman;fontSize=20;" parent="1" source="N8wbkYivmO6qTOgfnad1-5" target="N8wbkYivmO6qTOgfnad1-3" edge="1">
          <mxGeometry relative="1" as="geometry">
            <Array as="points">
              <mxPoint x="235" y="176" />
              <mxPoint x="235" y="176" />
            </Array>
          </mxGeometry>
        </mxCell>
        <mxCell id="N8wbkYivmO6qTOgfnad1-38" style="edgeStyle=orthogonalEdgeStyle;rounded=0;orthogonalLoop=1;jettySize=auto;html=1;fontFamily=Times New Roman;fontSize=20;" parent="1" edge="1">
          <mxGeometry relative="1" as="geometry">
            <Array as="points">
              <mxPoint x="439" y="613" />
              <mxPoint x="439" y="613" />
            </Array>
            <mxPoint x="418.5" y="613" as="sourcePoint" />
            <mxPoint x="688" y="613" as="targetPoint" />
          </mxGeometry>
        </mxCell>
        <mxCell id="N8wbkYivmO6qTOgfnad1-49" style="edgeStyle=orthogonalEdgeStyle;rounded=0;orthogonalLoop=1;jettySize=auto;html=1;dashed=1;fontFamily=Times New Roman;fontSize=20;" parent="1" edge="1">
          <mxGeometry relative="1" as="geometry">
            <Array as="points">
              <mxPoint x="205" y="733" />
              <mxPoint x="205" y="733" />
            </Array>
            <mxPoint x="408.5" y="733" as="sourcePoint" />
            <mxPoint x="126.5" y="733" as="targetPoint" />
          </mxGeometry>
        </mxCell>
        <mxCell id="N8wbkYivmO6qTOgfnad1-5" value="" style="html=1;points=[];perimeter=orthogonalPerimeter;rounded=0;shadow=0;comic=0;labelBackgroundColor=none;strokeWidth=1;fontFamily=Times New Roman;fontSize=20;align=center;" parent="1" vertex="1">
          <mxGeometry x="408.5" y="138" width="10" height="644" as="geometry" />
        </mxCell>
        <mxCell id="N8wbkYivmO6qTOgfnad1-6" value="&lt;font style=&quot;font-size: 20px;&quot;&gt;&lt;span style=&quot;font-size: 20px;&quot;&gt;Модуль обработки данных&lt;/span&gt;&lt;/font&gt;" style="shape=umlLifeline;perimeter=lifelinePerimeter;whiteSpace=wrap;html=1;container=1;dropTarget=0;collapsible=0;recursiveResize=0;outlineConnect=0;portConstraint=eastwest;newEdgeStyle={&quot;edgeStyle&quot;:&quot;elbowEdgeStyle&quot;,&quot;elbow&quot;:&quot;vertical&quot;,&quot;curved&quot;:0,&quot;rounded&quot;:0};fontFamily=Times New Roman;fontSize=20;" parent="1" vertex="1">
          <mxGeometry x="568.13" y="78" width="249.75" height="725" as="geometry" />
        </mxCell>
        <mxCell id="N8wbkYivmO6qTOgfnad1-23" style="edgeStyle=orthogonalEdgeStyle;rounded=0;orthogonalLoop=1;jettySize=auto;html=1;fontFamily=Times New Roman;fontSize=20;" parent="1" edge="1">
          <mxGeometry relative="1" as="geometry">
            <Array as="points">
              <mxPoint x="471" y="276" />
              <mxPoint x="471" y="276" />
            </Array>
            <mxPoint x="688" y="276" as="sourcePoint" />
            <mxPoint x="418.5" y="276" as="targetPoint" />
          </mxGeometry>
        </mxCell>
        <mxCell id="N8wbkYivmO6qTOgfnad1-40" style="edgeStyle=orthogonalEdgeStyle;rounded=0;orthogonalLoop=1;jettySize=auto;html=1;fontFamily=Times New Roman;fontSize=20;" parent="1" edge="1">
          <mxGeometry relative="1" as="geometry">
            <Array as="points">
              <mxPoint x="837" y="621" />
              <mxPoint x="837" y="621" />
            </Array>
            <mxPoint x="698" y="621" as="sourcePoint" />
            <mxPoint x="976" y="621" as="targetPoint" />
          </mxGeometry>
        </mxCell>
        <mxCell id="N8wbkYivmO6qTOgfnad1-43" style="edgeStyle=orthogonalEdgeStyle;rounded=0;orthogonalLoop=1;jettySize=auto;html=1;fontFamily=Times New Roman;fontSize=20;" parent="1" edge="1">
          <mxGeometry relative="1" as="geometry">
            <Array as="points">
              <mxPoint x="439" y="720" />
              <mxPoint x="439" y="720" />
            </Array>
            <mxPoint x="688" y="720" as="sourcePoint" />
            <mxPoint x="418.5" y="720" as="targetPoint" />
          </mxGeometry>
        </mxCell>
        <mxCell id="N8wbkYivmO6qTOgfnad1-7" value="" style="html=1;points=[];perimeter=orthogonalPerimeter;rounded=0;shadow=0;comic=0;labelBackgroundColor=none;strokeWidth=1;fontFamily=Times New Roman;fontSize=20;align=center;" parent="1" vertex="1">
          <mxGeometry x="688" y="138" width="10" height="644" as="geometry" />
        </mxCell>
        <mxCell id="N8wbkYivmO6qTOgfnad1-19" style="edgeStyle=orthogonalEdgeStyle;rounded=0;orthogonalLoop=1;jettySize=auto;html=1;fontFamily=Times New Roman;fontSize=20;" parent="1" edge="1">
          <mxGeometry relative="1" as="geometry">
            <Array as="points">
              <mxPoint x="839" y="244" />
              <mxPoint x="839" y="244" />
            </Array>
            <mxPoint x="976" y="244" as="sourcePoint" />
            <mxPoint x="698" y="244" as="targetPoint" />
          </mxGeometry>
        </mxCell>
        <mxCell id="N8wbkYivmO6qTOgfnad1-41" style="edgeStyle=orthogonalEdgeStyle;rounded=0;orthogonalLoop=1;jettySize=auto;html=1;fontFamily=Times New Roman;fontSize=20;" parent="1" edge="1">
          <mxGeometry relative="1" as="geometry">
            <Array as="points">
              <mxPoint x="843" y="658" />
              <mxPoint x="843" y="658" />
            </Array>
            <mxPoint x="976" y="658" as="sourcePoint" />
            <mxPoint x="698" y="658" as="targetPoint" />
          </mxGeometry>
        </mxCell>
        <mxCell id="N8wbkYivmO6qTOgfnad1-9" value="" style="html=1;points=[];perimeter=orthogonalPerimeter;rounded=0;shadow=0;comic=0;labelBackgroundColor=none;strokeWidth=1;fontFamily=Times New Roman;fontSize=20;align=center;" parent="1" vertex="1">
          <mxGeometry x="976" y="132.5" width="10" height="644.5" as="geometry" />
        </mxCell>
        <mxCell id="N8wbkYivmO6qTOgfnad1-11" value="&lt;font style=&quot;font-size: 20px;&quot;&gt;Перейти на страницу кандидатов&lt;/font&gt;" style="text;html=1;align=center;verticalAlign=middle;resizable=0;points=[];autosize=1;strokeColor=none;fillColor=none;fontFamily=Times New Roman;fontSize=20;" parent="1" vertex="1">
          <mxGeometry x="118.5" y="121" width="300" height="36" as="geometry" />
        </mxCell>
        <mxCell id="N8wbkYivmO6qTOgfnad1-14" value="&lt;font style=&quot;font-size: 20px;&quot;&gt;Отображение загрузочного &lt;br style=&quot;font-size: 20px;&quot;&gt;экрана&lt;/font&gt;" style="text;html=1;align=center;verticalAlign=middle;resizable=0;points=[];autosize=1;strokeColor=none;fillColor=none;fontFamily=Times New Roman;fontSize=20;" parent="1" vertex="1">
          <mxGeometry x="110.5" y="170" width="248" height="60" as="geometry" />
        </mxCell>
        <mxCell id="N8wbkYivmO6qTOgfnad1-15" style="edgeStyle=orthogonalEdgeStyle;rounded=0;orthogonalLoop=1;jettySize=auto;html=1;fontFamily=Times New Roman;fontSize=20;" parent="1" source="N8wbkYivmO6qTOgfnad1-5" target="N8wbkYivmO6qTOgfnad1-7" edge="1">
          <mxGeometry relative="1" as="geometry">
            <mxPoint x="339.5" y="174" as="sourcePoint" />
            <mxPoint x="551.5" y="174" as="targetPoint" />
            <Array as="points">
              <mxPoint x="441" y="170" />
              <mxPoint x="441" y="170" />
            </Array>
          </mxGeometry>
        </mxCell>
        <mxCell id="N8wbkYivmO6qTOgfnad1-16" value="&lt;font style=&quot;font-size: 20px;&quot;&gt;Запрос данных о кандидатах&lt;/font&gt;" style="text;html=1;align=center;verticalAlign=middle;resizable=0;points=[];autosize=1;strokeColor=none;fillColor=none;fontFamily=Times New Roman;fontSize=20;" parent="1" vertex="1">
          <mxGeometry x="414" y="141" width="262" height="36" as="geometry" />
        </mxCell>
        <mxCell id="N8wbkYivmO6qTOgfnad1-17" style="edgeStyle=orthogonalEdgeStyle;rounded=0;orthogonalLoop=1;jettySize=auto;html=1;fontFamily=Times New Roman;fontSize=20;" parent="1" source="N8wbkYivmO6qTOgfnad1-7" target="N8wbkYivmO6qTOgfnad1-9" edge="1">
          <mxGeometry relative="1" as="geometry">
            <mxPoint x="553" y="179" as="sourcePoint" />
            <mxPoint x="743" y="179" as="targetPoint" />
            <Array as="points">
              <mxPoint x="703" y="182" />
              <mxPoint x="703" y="182" />
            </Array>
          </mxGeometry>
        </mxCell>
        <mxCell id="N8wbkYivmO6qTOgfnad1-18" value="&lt;font style=&quot;font-size: 20px;&quot;&gt;Запрос информации кандидатов&lt;/font&gt;" style="text;html=1;align=center;verticalAlign=middle;resizable=0;points=[];autosize=1;strokeColor=none;fillColor=none;fontFamily=Times New Roman;fontSize=20;" parent="1" vertex="1">
          <mxGeometry x="692.5" y="147" width="291" height="36" as="geometry" />
        </mxCell>
        <mxCell id="N8wbkYivmO6qTOgfnad1-20" value="&lt;font style=&quot;font-size: 20px;&quot;&gt;Возврат данных о кандидатах&lt;/font&gt;" style="text;html=1;align=center;verticalAlign=middle;resizable=0;points=[];autosize=1;strokeColor=none;fillColor=none;fontFamily=Times New Roman;fontSize=20;" parent="1" vertex="1">
          <mxGeometry x="697" y="212" width="271" height="36" as="geometry" />
        </mxCell>
        <mxCell id="N8wbkYivmO6qTOgfnad1-21" style="edgeStyle=orthogonalEdgeStyle;rounded=0;orthogonalLoop=1;jettySize=auto;html=1;fontFamily=Times New Roman;fontSize=20;" parent="1" edge="1">
          <mxGeometry relative="1" as="geometry">
            <Array as="points">
              <mxPoint x="925" y="256" />
              <mxPoint x="925" y="266" />
            </Array>
            <mxPoint x="698" y="256" as="sourcePoint" />
            <mxPoint x="698" y="266" as="targetPoint" />
          </mxGeometry>
        </mxCell>
        <mxCell id="N8wbkYivmO6qTOgfnad1-22" value="&lt;font style=&quot;font-size: 20px;&quot;&gt;Формирование данных о &lt;br style=&quot;font-size: 20px;&quot;&gt;кандидатах&lt;/font&gt;" style="text;html=1;align=center;verticalAlign=middle;resizable=0;points=[];autosize=1;strokeColor=none;fillColor=none;fontFamily=Times New Roman;fontSize=20;" parent="1" vertex="1">
          <mxGeometry x="707" y="259" width="229" height="60" as="geometry" />
        </mxCell>
        <mxCell id="N8wbkYivmO6qTOgfnad1-24" value="&lt;font style=&quot;font-size: 20px;&quot;&gt;Возврат данных о кандидатах&lt;/font&gt;" style="text;html=1;align=center;verticalAlign=middle;resizable=0;points=[];autosize=1;strokeColor=none;fillColor=none;fontFamily=Times New Roman;fontSize=20;" parent="1" vertex="1">
          <mxGeometry x="418.5" y="283" width="271" height="36" as="geometry" />
        </mxCell>
        <mxCell id="N8wbkYivmO6qTOgfnad1-25" style="edgeStyle=orthogonalEdgeStyle;rounded=0;orthogonalLoop=1;jettySize=auto;html=1;dashed=1;fontFamily=Times New Roman;fontSize=20;" parent="1" edge="1">
          <mxGeometry relative="1" as="geometry">
            <mxPoint x="408.5" y="287" as="sourcePoint" />
            <mxPoint x="126.5" y="287" as="targetPoint" />
            <Array as="points">
              <mxPoint x="235" y="287" />
              <mxPoint x="235" y="287" />
            </Array>
          </mxGeometry>
        </mxCell>
        <mxCell id="N8wbkYivmO6qTOgfnad1-26" value="&lt;font style=&quot;font-size: 20px;&quot;&gt;Отображение информации &lt;br style=&quot;font-size: 20px;&quot;&gt;о кандидатах&lt;/font&gt;" style="text;html=1;align=center;verticalAlign=middle;resizable=0;points=[];autosize=1;strokeColor=none;fillColor=none;fontFamily=Times New Roman;fontSize=20;" parent="1" vertex="1">
          <mxGeometry x="131.5" y="283" width="245" height="60" as="geometry" />
        </mxCell>
        <mxCell id="N8wbkYivmO6qTOgfnad1-27" style="edgeStyle=orthogonalEdgeStyle;rounded=0;orthogonalLoop=1;jettySize=auto;html=1;fontFamily=Times New Roman;fontSize=20;" parent="1" edge="1">
          <mxGeometry relative="1" as="geometry">
            <mxPoint x="129" y="385" as="sourcePoint" />
            <mxPoint x="411" y="385" as="targetPoint" />
            <Array as="points">
              <mxPoint x="236.5" y="385" />
              <mxPoint x="236.5" y="385" />
            </Array>
          </mxGeometry>
        </mxCell>
        <mxCell id="N8wbkYivmO6qTOgfnad1-28" value="&lt;font style=&quot;font-size: 20px;&quot;&gt;Нажатие на кнопку добавление&lt;br style=&quot;font-size: 20px;&quot;&gt;&amp;nbsp;пользователя по кандидату&lt;/font&gt;" style="text;html=1;align=center;verticalAlign=middle;resizable=0;points=[];autosize=1;strokeColor=none;fillColor=none;fontFamily=Times New Roman;fontSize=20;" parent="1" vertex="1">
          <mxGeometry x="120" y="331" width="285" height="60" as="geometry" />
        </mxCell>
        <mxCell id="N8wbkYivmO6qTOgfnad1-29" style="edgeStyle=orthogonalEdgeStyle;rounded=0;orthogonalLoop=1;jettySize=auto;html=1;fontFamily=Times New Roman;fontSize=20;" parent="1" edge="1">
          <mxGeometry relative="1" as="geometry">
            <mxPoint x="421" y="405" as="sourcePoint" />
            <mxPoint x="421" y="416" as="targetPoint" />
            <Array as="points">
              <mxPoint x="627.5" y="405" />
              <mxPoint x="627.5" y="416" />
            </Array>
          </mxGeometry>
        </mxCell>
        <mxCell id="N8wbkYivmO6qTOgfnad1-30" value="&lt;font style=&quot;font-size: 20px;&quot;&gt;Возврат формы для &lt;br style=&quot;font-size: 20px;&quot;&gt;добавления&lt;/font&gt;" style="text;html=1;align=center;verticalAlign=middle;resizable=0;points=[];autosize=1;strokeColor=none;fillColor=none;fontFamily=Times New Roman;fontSize=20;" parent="1" vertex="1">
          <mxGeometry x="444" y="409" width="184" height="60" as="geometry" />
        </mxCell>
        <mxCell id="N8wbkYivmO6qTOgfnad1-31" style="edgeStyle=orthogonalEdgeStyle;rounded=0;orthogonalLoop=1;jettySize=auto;html=1;dashed=1;fontFamily=Times New Roman;fontSize=20;" parent="1" edge="1">
          <mxGeometry relative="1" as="geometry">
            <mxPoint x="411" y="424" as="sourcePoint" />
            <mxPoint x="129" y="424" as="targetPoint" />
            <Array as="points">
              <mxPoint x="236.5" y="424" />
              <mxPoint x="236.5" y="424" />
            </Array>
          </mxGeometry>
        </mxCell>
        <mxCell id="N8wbkYivmO6qTOgfnad1-32" value="&lt;font style=&quot;font-size: 20px;&quot;&gt;Отображение формы для &lt;br style=&quot;font-size: 20px;&quot;&gt;добавления кандидатов&lt;/font&gt;" style="text;html=1;align=center;verticalAlign=middle;resizable=0;points=[];autosize=1;strokeColor=none;fillColor=none;fontFamily=Times New Roman;fontSize=20;" parent="1" vertex="1">
          <mxGeometry x="138.5" y="419" width="231" height="60" as="geometry" />
        </mxCell>
        <mxCell id="N8wbkYivmO6qTOgfnad1-33" style="edgeStyle=orthogonalEdgeStyle;rounded=0;orthogonalLoop=1;jettySize=auto;html=1;fontFamily=Times New Roman;fontSize=20;" parent="1" edge="1">
          <mxGeometry relative="1" as="geometry">
            <mxPoint x="129" y="534" as="sourcePoint" />
            <mxPoint x="129" y="545" as="targetPoint" />
            <Array as="points">
              <mxPoint x="357.5" y="534" />
              <mxPoint x="357.5" y="545" />
            </Array>
          </mxGeometry>
        </mxCell>
        <mxCell id="N8wbkYivmO6qTOgfnad1-34" value="&lt;font style=&quot;font-size: 20px;&quot;&gt;Заполнение формы для&lt;br style=&quot;font-size: 20px;&quot;&gt;добавления кандидатов&lt;/font&gt;" style="text;html=1;align=center;verticalAlign=middle;resizable=0;points=[];autosize=1;strokeColor=none;fillColor=none;fontFamily=Times New Roman;fontSize=20;" parent="1" vertex="1">
          <mxGeometry x="137" y="483" width="217" height="60" as="geometry" />
        </mxCell>
        <mxCell id="N8wbkYivmO6qTOgfnad1-36" value="&lt;font style=&quot;font-size: 20px;&quot;&gt;Нажатие на кнопку создания&lt;br style=&quot;font-size: 20px;&quot;&gt;пользователя&lt;/font&gt;" style="text;html=1;align=center;verticalAlign=middle;resizable=0;points=[];autosize=1;strokeColor=none;fillColor=none;fontFamily=Times New Roman;fontSize=20;" parent="1" vertex="1">
          <mxGeometry x="122.5" y="546" width="263" height="60" as="geometry" />
        </mxCell>
        <mxCell id="N8wbkYivmO6qTOgfnad1-37" value="&lt;font style=&quot;font-size: 20px;&quot;&gt;Запрос создания пользователя&lt;/font&gt;" style="text;html=1;align=center;verticalAlign=middle;resizable=0;points=[];autosize=1;strokeColor=none;fillColor=none;fontFamily=Times New Roman;fontSize=20;" parent="1" vertex="1">
          <mxGeometry x="417" y="582" width="274" height="36" as="geometry" />
        </mxCell>
        <mxCell id="N8wbkYivmO6qTOgfnad1-39" value="&lt;font style=&quot;font-size: 20px;&quot;&gt;Запрос создания пользователя&lt;/font&gt;" style="text;html=1;align=center;verticalAlign=middle;resizable=0;points=[];autosize=1;strokeColor=none;fillColor=none;fontFamily=Times New Roman;fontSize=20;" parent="1" vertex="1">
          <mxGeometry x="701" y="585" width="274" height="36" as="geometry" />
        </mxCell>
        <mxCell id="N8wbkYivmO6qTOgfnad1-42" value="&lt;font style=&quot;font-size: 20px;&quot;&gt;Возврат данных созданного &lt;br style=&quot;font-size: 20px;&quot;&gt;пользователя&lt;/font&gt;" style="text;html=1;align=center;verticalAlign=middle;resizable=0;points=[];autosize=1;strokeColor=none;fillColor=none;fontFamily=Times New Roman;fontSize=20;" parent="1" vertex="1">
          <mxGeometry x="707" y="648" width="254" height="60" as="geometry" />
        </mxCell>
        <mxCell id="N8wbkYivmO6qTOgfnad1-44" value="&lt;font style=&quot;font-size: 20px;&quot;&gt;Возврат данных о кандидатах,&lt;br style=&quot;font-size: 20px;&quot;&gt;без созданного пользователя&lt;br style=&quot;font-size: 20px;&quot;&gt;&lt;/font&gt;" style="text;html=1;align=center;verticalAlign=middle;resizable=0;points=[];autosize=1;strokeColor=none;fillColor=none;fontFamily=Times New Roman;fontSize=20;" parent="1" vertex="1">
          <mxGeometry x="414" y="720" width="276" height="60" as="geometry" />
        </mxCell>
        <mxCell id="N8wbkYivmO6qTOgfnad1-45" style="edgeStyle=orthogonalEdgeStyle;rounded=0;orthogonalLoop=1;jettySize=auto;html=1;fontFamily=Times New Roman;fontSize=20;" parent="1" edge="1">
          <mxGeometry relative="1" as="geometry">
            <mxPoint x="698" y="699" as="sourcePoint" />
            <mxPoint x="698" y="712" as="targetPoint" />
            <Array as="points">
              <mxPoint x="925" y="699" />
              <mxPoint x="925" y="712" />
            </Array>
          </mxGeometry>
        </mxCell>
        <mxCell id="N8wbkYivmO6qTOgfnad1-48" value="&lt;font style=&quot;font-size: 20px;&quot;&gt;Формирование данных о&lt;br style=&quot;font-size: 20px;&quot;&gt;кандидатах, без&lt;br style=&quot;border-color: var(--border-color); font-size: 20px;&quot;&gt;созданного пользователя&lt;/font&gt;" style="text;html=1;align=center;verticalAlign=middle;resizable=0;points=[];autosize=1;strokeColor=none;fillColor=none;fontFamily=Times New Roman;fontSize=20;" parent="1" vertex="1">
          <mxGeometry x="723.5" y="708" width="229" height="84" as="geometry" />
        </mxCell>
        <mxCell id="N8wbkYivmO6qTOgfnad1-50" value="&lt;font style=&quot;font-size: 20px;&quot;&gt;Отображение кандидатов без&amp;nbsp;&lt;br style=&quot;font-size: 20px;&quot;&gt;созданного пользователя&lt;br style=&quot;font-size: 20px;&quot;&gt;&lt;/font&gt;" style="text;html=1;align=center;verticalAlign=middle;resizable=0;points=[];autosize=1;strokeColor=none;fillColor=none;fontFamily=Times New Roman;fontSize=20;" parent="1" vertex="1">
          <mxGeometry x="131.5" y="727" width="271" height="60" as="geometry" />
        </mxCell>
        <mxCell id="6ZZBdrLPSCEVKC6F-uRo-4" value="" style="strokeWidth=1;html=1;shape=mxgraph.flowchart.database;whiteSpace=wrap;fontSize=20;" vertex="1" parent="1">
          <mxGeometry x="942" y="78" width="73" height="41" as="geometry" />
        </mxCell>
        <mxCell id="6ZZBdrLPSCEVKC6F-uRo-6" value="&lt;font style=&quot;font-size: 20px;&quot; face=&quot;Times New Roman&quot;&gt;Модуль базы данных&lt;/font&gt;" style="text;html=1;align=center;verticalAlign=middle;resizable=0;points=[];autosize=1;strokeColor=none;fillColor=none;fontSize=20;" vertex="1" parent="1">
          <mxGeometry x="889" y="47.5" width="197" height="36" as="geometry" />
        </mxCell>
        <mxCell id="6ZZBdrLPSCEVKC6F-uRo-7" value="&lt;font style=&quot;font-size: 20px;&quot; face=&quot;Times New Roman&quot;&gt;Пользователь&lt;/font&gt;" style="text;html=1;align=center;verticalAlign=middle;resizable=0;points=[];autosize=1;strokeColor=none;fillColor=none;fontSize=20;" vertex="1" parent="1">
          <mxGeometry x="65" y="47.5" width="133" height="36" as="geometry" />
        </mxCell>
      </root>
    </mxGraphModel>
  </diagram>
</mxfile>
